# xmcd
#
# Track frame offsets:
#	150
#	16213
#	27204
#	42558
#	58109
#	70772
#	82638
#	95910
#	108643
#	128335
#	145120
#	154411
#	163809
#	180772
#	193368
#	206791
#
# Disc length: 2931 seconds
#
# Revision: 1
# Processed by: cddbd v1.5.1PL0 Copyright (c) Steve Scherf et al.
# Submitted via: audiograbber 1.83.01
#
DISCID=db0b7110
DTITLE=Various Artist - Country Legends
DYEAR=1900
DGENRE=Country
TTITLE0=Freddy Fender - Another Shot of Ambition
TTITLE1=Waylon Jennings - Big Mamou
TTITLE2=Boxcar Willie - Forty-Nine Nights
TTITLE3=Bill Davis - If You Can't Be Good
TTITLE4=Carry and Ron - Burning Eyes
TTITLE5=Don Williams - Tulsa Time
TTITLE6=Patsy Cline and Willie Nelson - Life's Railway To Heaven
TTITLE7=Stella Parton - Legs
TTITLE8=The Mavericks - (I Just Want To) Dance The Night Away
TTITLE9=David Allan Coe - Desperate Man
TTITLE10=Ronnie Hawkins - Hey Good Lookin
TTITLE11=Mickey Gilley - Lotta Lovin
TTITLE12=Emmylou Harris and Carl Perkins -  He's Gone, Gone, Gone
TTITLE13=Billie Jo Spears - ´57 Chevrolet
TTITLE14=Glen Campell - Rhinestone Cowboy
TTITLE15=The Bellamy Brothers - Get Into Reggae Cowboy
EXTD=
EXTT0=
EXTT1=
EXTT2=
EXTT3=
EXTT4=
EXTT5=
EXTT6=
EXTT7=
EXTT8=
EXTT9=
EXTT10=
EXTT11=
EXTT12=
EXTT13=
EXTT14=
EXTT15=
PLAYORDER=
